<?xml version="1.0" encoding="UTF-8"?>
<svg width="1024" height="1024" viewBox="0 0 1024 1024" xmlns="http://www.w3.org/2000/svg">
  <defs>
    <linearGradient id="bg" x1="0" y1="0" x2="1024" y2="1024" gradientUnits="userSpaceOnUse">
      <stop offset="0%" stop-color="#180816"/>
      <stop offset="55%" stop-color="#B4145A"/>
      <stop offset="100%" stop-color="#FF8C40"/>
    </linearGradient>
  </defs>

  <rect width="1024" height="1024" rx="220" fill="url(#bg)"/>

  <!-- square brackets -->
  <path d="M 220.16000000000003 215.04000000000002 L 158.72000000000003 215.04000000000002 L 158.72000000000003 808.96 L 220.16000000000003 808.96" fill="none" stroke="#FFF5D2" stroke-width="27" stroke-linecap="round" stroke-linejoin="round"/>
  <path d="M 803.8399999999999 215.04000000000002 L 865.28 215.04000000000002 L 865.28 808.96 L 803.8399999999999 808.96" fill="none" stroke="#FFF5D2" stroke-width="27" stroke-linecap="round" stroke-linejoin="round"/>

  <!-- waveform (minimal) -->
  <path d="M 204.80 521.71 L 208.64 527.96 L 212.48 534.14 L 216.32 540.23 L 220.16 546.19 L 224.00 552.02 L 227.84 557.68 L 231.68 563.14 L 235.52 568.39 L 239.36 573.41 L 243.20 578.16 L 247.04 582.64 L 250.88 586.83 L 254.72 590.69 L 258.56 594.23 L 262.40 597.42 L 266.24 600.26 L 270.08 602.72 L 273.92 604.81 L 277.76 606.50 L 281.60 607.80 L 285.44 608.69 L 289.28 609.18 L 293.12 609.26 L 296.96 608.93 L 300.80 608.20 L 304.64 607.06 L 308.48 605.53 L 312.32 603.60 L 316.16 601.28 L 320.00 598.60 L 323.84 595.54 L 327.68 592.14 L 331.52 588.40 L 335.36 584.34 L 339.20 579.98 L 343.04 575.33 L 346.88 570.42 L 350.72 565.26 L 354.56 559.88 L 358.40 554.29 L 362.24 548.53 L 366.08 542.62 L 369.92 536.58 L 373.76 530.43 L 377.60 524.21 L 381.44 517.93 L 385.28 511.63 L 389.12 505.33 L 392.96 499.06 L 396.80 492.85 L 400.64 486.71 L 404.48 480.68 L 408.32 474.78 L 412.16 469.04 L 416.00 463.48 L 419.84 458.12 L 423.68 452.99 L 427.52 448.11 L 431.36 443.49 L 435.20 439.16 L 439.04 435.14 L 442.88 431.44 L 446.72 428.08 L 450.56 425.07 L 454.40 422.43 L 458.24 420.16 L 462.08 418.27 L 465.92 416.78 L 469.76 415.69 L 473.60 415.01 L 477.44 414.73 L 481.28 414.86 L 485.12 415.39 L 488.96 416.33 L 492.80 417.68 L 496.64 419.42 L 500.48 421.55 L 504.32 424.05 L 508.16 426.93 L 512.00 430.16 L 515.84 433.74 L 519.68 437.65 L 523.52 441.87 L 527.36 446.38 L 531.20 451.17 L 535.04 456.21 L 538.88 461.49 L 542.72 466.98 L 546.56 472.65 L 550.40 478.50 L 554.24 484.48 L 558.08 490.58 L 561.92 496.77 L 565.76 503.02 L 569.60 509.31 L 573.44 515.61 L 577.28 521.90 L 581.12 528.15 L 584.96 534.32 L 588.80 540.41 L 592.64 546.37 L 596.48 552.19 L 600.32 557.85 L 604.16 563.30 L 608.00 568.55 L 611.84 573.56 L 615.68 578.30 L 619.52 582.77 L 623.36 586.95 L 627.20 590.81 L 631.04 594.33 L 634.88 597.52 L 638.72 600.34 L 642.56 602.79 L 646.40 604.86 L 650.24 606.54 L 654.08 607.83 L 657.92 608.71 L 661.76 609.19 L 665.60 609.26 L 669.44 608.92 L 673.28 608.17 L 677.12 607.02 L 680.96 605.47 L 684.80 603.53 L 688.64 601.21 L 692.48 598.51 L 696.32 595.45 L 700.16 592.03 L 704.00 588.29 L 707.84 584.22 L 711.68 579.85 L 715.52 575.19 L 719.36 570.27 L 723.20 565.10 L 727.04 559.71 L 730.88 554.12 L 734.72 548.36 L 738.56 542.44 L 742.40 536.39 L 746.24 530.24 L 750.08 524.02 L 753.92 517.74 L 757.76 511.44 L 761.60 505.14 L 765.44 498.87 L 769.28 492.66 L 773.12 486.53 L 776.96 480.50 L 780.80 474.61 L 784.64 468.87 L 788.48 463.32 L 792.32 457.97 L 796.16 452.84 L 800.00 447.96 L 803.84 443.36 L 807.68 439.04 L 811.52 435.03 L 815.36 431.34 L 819.20 427.98" fill="none" stroke="#FFF5D2" stroke-width="28" stroke-linecap="round" stroke-linejoin="round"/>

  <!-- dot on wave -->
  <circle cx="608.00" cy="568.55" r="36" fill="#00B0FF" stroke="#000000" stroke-width="11"/>
</svg>